<svg class="homepage-hero__svg" viewBox="0 0 156 35" fill="none" xmlns="http://www.w3.org/2000/svg" style="width: 100%; height: auto;">
    <path class="homepage-hero__letter" data-index="0" d="M 0 31 L 1 31 L 2 31 L 3 31 L 4 31 L 5 31 L 6 31 L 7 31 L 8 31 L 9 31 L 10 31 L 11 31 L 12 31 L 13 31 L 14 31 L 15 31 L 16 31 L 17 31 L 18 31 L 19 31 L 20 31 L 21 31 L 20 31 L 19 31 L 18 31 L 17 31 L 16 31 L 15 31 L 14 31 L 13 31 L 12 31 L 11 31 L 10 31 L 9 31 L 8 31 L 7 31 L 6 31 L 5 31 L 4 31 L 3 31 L 2 31 L 1 31 Z" fill="currentColor" fill-rule="evenodd" />
    <path class="homepage-hero__letter" data-index="1" d="M 0 31 L 1 31 L 2 31 L 3 31 L 4 31 L 5 31 L 6 31 L 7 31 L 8 31 L 9 31 L 10 31 L 11 31 L 12 31 L 13 31 L 14 31 L 15 31 L 16 31 L 17 31 L 18 31 L 19 31 L 20 31 L 21 31 L 22 31 L 23 31 L 24 31 L 25 31 L 26 31 L 27 31 L 28 31 L 29 31 L 30 31 L 31 31 L 32 31 L 33 31 L 32 31 L 31 31 L 30 31 L 29 31 L 28 31 L 27 31 L 26 31 L 25 31 L 24 31 L 23 31 L 22 31 L 21 31 L 20 31 L 19 31 L 18 31 L 17 31 L 16 31 L 15 31 L 14 31 L 13 31 L 12 31 L 11 31 L 10 31 L 9 31 L 8 31 L 7 31 L 6 31 L 5 31 L 4 31 L 3 31 L 2 31 L 1 31 Z" fill="currentColor" fill-rule="evenodd" />
    <path class="homepage-hero__letter" data-index="2" d="M 34 31 L 35 31 L 36 31 L 37 31 L 38 31 L 39 31 L 40 31 L 41 31 L 42 31 L 43 31 L 44 31 L 45 31 L 44 31 L 43 31 L 42 31 L 41 31 L 40 31 L 39 31 L 38 31 L 37 31 L 36 31 L 35 31 Z" fill="currentColor" fill-rule="evenodd" />
    <path class="homepage-hero__letter" data-index="3" d="M 55 14 L 54 15 L 53 16 L 52 17 L 51 18 L 50 19 L 49 19 L 48 18 L 48 17 L 47 17 L 46 16 L 46 17 L 46 18 L 46 19 L 46 20 L 46 21 L 47 22 L 48 22 L 49 22 L 50 22 L 51 22 L 52 22 L 53 21 L 54 21 L 55 21 L 56 20 L 57 19 L 58 18 L 59 17 L 59 16 L 60 15 L 59 14 L 58 14 L 57 14 L 56 14 Z" fill="currentColor" fill-rule="evenodd" />
    <path class="homepage-hero__letter" data-index="4" d="M 46 0 L 46 1 L 46 2 L 46 3 L 46 4 L 46 5 L 46 6 L 47 5 L 48 5 L 49 5 L 50 5 L 50 4 L 50 3 L 50 2 L 50 1 L 50 0 L 49 0 L 48 0 L 47 0 Z" fill="currentColor" fill-rule="evenodd" />
    <path class="homepage-hero__letter" data-index="5" d="M 69 0 L 68 1 L 67 1 L 66 2 L 65 3 L 64 4 L 63 5 L 63 6 L 62 7 L 62 8 L 62 9 L 62 10 L 61 11 L 62 12 L 62 13 L 62 14 L 62 15 L 63 16 L 63 17 L 64 18 L 65 19 L 66 20 L 67 21 L 68 21 L 69 21 L 70 22 L 71 22 L 72 22 L 73 22 L 74 22 L 75 22 L 76 21 L 77 21 L 78 21 L 79 20 L 80 19 L 81 18 L 82 17 L 83 16 L 83 15 L 83 14 L 84 13 L 84 12 L 84 11 L 84 10 L 84 9 L 83 8 L 83 7 L 83 6 L 82 5 L 81 4 L 80 3 L 79 2 L 78 1 L 77 1 L 76 0 L 75 0 L 74 0 L 73 0 L 72 0 L 71 0 L 70 0 Z M 70 5 L 71 4 L 72 4 L 73 4 L 74 4 L 75 5 L 76 5 L 77 6 L 78 7 L 79 8 L 79 9 L 79 10 L 79 11 L 79 12 L 79 13 L 79 14 L 78 15 L 77 16 L 76 17 L 75 17 L 74 18 L 73 18 L 72 18 L 71 18 L 70 17 L 69 17 L 68 16 L 67 15 L 67 14 L 66 13 L 66 12 L 66 11 L 66 10 L 66 9 L 67 8 L 67 7 L 68 6 L 69 5 Z" fill="currentColor" fill-rule="evenodd" />
    <path class="homepage-hero__letter" data-index="6" d="M 86 0 L 86 1 L 86 2 L 86 3 L 86 4 L 86 5 L 86 6 L 86 7 L 86 8 L 86 9 L 86 10 L 86 11 L 86 12 L 86 13 L 86 14 L 86 15 L 86 16 L 86 17 L 86 18 L 86 19 L 86 20 L 87 21 L 88 21 L 89 22 L 90 22 L 91 22 L 92 22 L 93 22 L 94 22 L 95 22 L 96 22 L 97 22 L 98 22 L 98 21 L 98 20 L 98 19 L 98 18 L 97 18 L 96 18 L 95 18 L 94 18 L 93 18 L 92 18 L 91 17 L 90 16 L 90 15 L 90 14 L 90 13 L 90 12 L 90 11 L 90 10 L 90 9 L 90 8 L 90 7 L 90 6 L 90 5 L 90 4 L 90 3 L 90 2 L 90 1 L 90 0 L 89 0 L 88 0 L 87 0 Z" fill="currentColor" fill-rule="evenodd" />
    <path class="homepage-hero__letter" data-index="7" d="M 101 0 L 101 1 L 101 2 L 101 3 L 101 4 L 101 5 L 101 6 L 101 7 L 101 8 L 101 9 L 101 10 L 101 11 L 101 12 L 101 13 L 101 14 L 101 15 L 101 16 L 101 17 L 101 18 L 101 19 L 101 20 L 102 21 L 103 21 L 104 22 L 105 22 L 106 22 L 107 22 L 108 22 L 109 22 L 110 22 L 111 22 L 112 22 L 113 22 L 113 21 L 113 20 L 113 19 L 113 18 L 112 18 L 111 18 L 110 18 L 109 18 L 108 18 L 107 18 L 106 17 L 105 16 L 105 15 L 105 14 L 105 13 L 105 12 L 105 11 L 105 10 L 105 9 L 105 8 L 105 7 L 105 6 L 105 5 L 105 4 L 105 3 L 105 2 L 105 1 L 105 0 L 104 0 L 103 0 L 102 0 Z" fill="currentColor" fill-rule="evenodd" />
    <path class="homepage-hero__letter" data-index="8" d="M 116 0 L 115 1 L 115 2 L 115 3 L 115 4 L 115 5 L 115 6 L 115 7 L 115 8 L 115 9 L 115 10 L 115 11 L 115 12 L 115 13 L 115 14 L 115 15 L 115 16 L 115 17 L 115 18 L 115 19 L 115 20 L 115 21 L 115 22 L 116 22 L 117 22 L 118 22 L 119 22 L 120 22 L 120 21 L 120 20 L 120 19 L 120 18 L 120 17 L 120 16 L 120 15 L 120 14 L 120 13 L 120 12 L 120 11 L 120 10 L 120 9 L 120 8 L 120 7 L 120 6 L 120 5 L 120 4 L 120 3 L 120 2 L 120 1 L 120 0 L 119 0 L 118 0 L 117 0 Z" fill="currentColor" fill-rule="evenodd" />
    <path class="tagline-path" data-index="0" d="M 46 31 L 47 31 L 48 31 L 49 31 L 50 31 L 51 31 L 52 31 L 53 31 L 54 31 L 55 31 L 56 31 L 57 31 L 58 31 L 59 31 L 60 31 L 61 31 L 62 31 L 63 31 L 64 31 L 65 31 L 66 31 L 67 31 L 68 31 L 69 31 L 70 31 L 71 31 L 72 31 L 73 31 L 74 31 L 75 31 L 76 31 L 77 31 L 78 31 L 79 31 L 80 31 L 81 31 L 82 31 L 83 31 L 84 31 L 85 31 L 86 31 L 87 31 L 88 31 L 89 31 L 90 31 L 91 31 L 92 31 L 93 31 L 94 31 L 95 31 L 96 31 L 97 31 L 98 31 L 97 31 L 96 31 L 95 31 L 94 31 L 93 31 L 92 31 L 91 31 L 90 31 L 89 31 L 88 31 L 87 31 L 86 31 L 85 31 L 84 31 L 83 31 L 82 31 L 81 31 L 80 31 L 79 31 L 78 31 L 77 31 L 76 31 L 75 31 L 74 31 L 73 31 L 72 31 L 71 31 L 70 31 L 69 31 L 68 31 L 67 31 L 66 31 L 65 31 L 64 31 L 63 31 L 62 31 L 61 31 L 60 31 L 59 31 L 58 31 L 57 31 L 56 31 L 55 31 L 54 31 L 53 31 L 52 31 L 51 31 L 50 31 L 49 31 L 48 31 L 47 31 Z" fill="currentColor" fill-rule="evenodd" />
    <path class="tagline-path" data-index="1" d="M 102 28 L 102 29 L 101 30 L 101 31 L 101 32 L 101 33 L 102 33 L 102 32 L 102 31 L 102 30 L 102 29 L 103 28 L 104 28 L 105 29 L 105 30 L 105 31 L 105 32 L 105 33 L 106 33 L 106 32 L 106 31 L 106 30 L 106 29 L 107 28 L 108 29 L 108 30 L 108 31 L 108 32 L 108 33 L 109 33 L 109 32 L 109 31 L 109 30 L 109 29 L 108 28 L 107 28 L 106 28 L 105 28 L 104 28 L 103 28 Z" fill="currentColor" fill-rule="evenodd" />
    <path class="tagline-path" data-index="2" d="M 114 28 L 113 29 L 113 30 L 113 31 L 113 32 L 113 33 L 114 33 L 115 34 L 116 33 L 117 33 L 117 32 L 117 31 L 117 30 L 117 29 L 116 28 L 115 28 Z M 114 32 L 115 31 L 116 31 L 117 32 L 116 33 L 115 33 Z M 114 29 L 115 28 L 116 29 L 115 30 Z" fill="currentColor" fill-rule="evenodd" />
    <path class="tagline-path" data-index="3" d="M 125 26 L 124 27 L 123 28 L 122 28 L 121 29 L 121 30 L 121 31 L 121 32 L 121 33 L 122 34 L 123 34 L 124 33 L 125 33 L 125 32 L 125 31 L 125 30 L 125 29 L 125 28 L 125 27 Z M 122 29 L 123 28 L 124 29 L 124 30 L 124 31 L 124 32 L 123 33 L 122 33 L 121 32 L 121 31 L 121 30 Z" fill="currentColor" fill-rule="evenodd" />
    <path class="tagline-path" data-index="4" d="M 129 28 L 129 29 L 129 30 L 129 31 L 129 32 L 129 33 L 129 34 L 129 33 L 129 32 L 129 31 L 129 30 L 129 29 Z" fill="currentColor" fill-rule="evenodd" />
    <path class="tagline-path" data-index="5" d="M 129 26 Z" fill="currentColor" fill-rule="evenodd" />
    <path class="tagline-path" data-index="6" d="M 134 28 L 133 29 L 133 30 L 133 31 L 133 32 L 134 33 L 135 34 L 136 34 L 137 34 L 138 33 L 138 32 L 138 31 L 138 30 L 137 29 L 137 28 L 136 28 L 135 28 Z M 134 29 L 135 28 L 136 28 L 137 29 L 137 30 L 137 31 L 137 32 L 136 33 L 135 33 L 134 32 L 134 31 L 134 30 Z" fill="currentColor" fill-rule="evenodd" />
    <path class="tagline-path" data-index="7" d="M 140 31 L 141 31 L 142 31 L 143 31 L 144 31 L 145 31 L 146 31 L 147 31 L 148 31 L 149 31 L 150 31 L 151 31 L 152 31 L 153 31 L 154 31 L 153 31 L 152 31 L 151 31 L 150 31 L 149 31 L 148 31 L 147 31 L 146 31 L 145 31 L 144 31 L 143 31 L 142 31 L 141 31 Z" fill="currentColor" fill-rule="evenodd" />
</svg>
